<svg width="61" height="66" viewBox="0 0 61 66" fill="none" xmlns="http://www.w3.org/2000/svg">
<g id="logos:airbnb" clip-path="url(#clip0_62_2749)">
<path id="Vector" d="M55.9201 53.2241C55.4677 56.586 53.2053 59.4951 50.0379 60.7879C48.4864 61.4336 46.8059 61.6281 45.125 61.4336C43.5092 61.24 41.8929 60.7227 40.2125 59.7541C37.8851 58.4598 35.558 56.4569 32.8433 53.4831C37.1098 48.2472 39.6947 43.4636 40.6648 39.198C41.1174 37.1938 41.1818 35.3837 40.9883 33.7028C40.73 32.087 40.148 30.5997 39.2426 29.3071C37.2387 26.3985 33.8778 24.7176 30.1285 24.7176C26.3792 24.7176 23.018 26.4632 21.0141 29.3071C20.1087 30.5999 19.5277 32.087 19.2687 33.7028C19.0104 35.3837 19.0749 37.2583 19.5922 39.1982C20.5615 43.4634 23.2116 48.3119 27.4137 53.5469C24.7634 56.5213 22.3716 58.525 20.0443 59.818C18.3638 60.7879 16.7476 61.3052 15.1318 61.4983C13.4661 61.6843 11.7801 61.4627 10.219 60.8526C7.05146 59.5598 4.78951 56.6498 4.3367 53.2886C4.1431 51.673 4.27224 50.0573 4.91865 48.2472C5.11224 47.6003 5.43591 46.9551 5.75865 46.1788C6.21146 45.145 6.72873 44.0453 7.24529 42.9461L7.31045 42.8177C11.7701 33.1855 16.554 23.3603 21.5314 13.7938L21.7252 13.4052C22.2425 12.4366 22.759 11.4027 23.2768 10.4327C23.7936 9.39812 24.3753 8.42828 25.0861 7.58734C26.4436 6.03578 28.2537 5.19555 30.2576 5.19555C32.2615 5.19555 34.0714 6.03578 35.4289 7.58758C36.14 8.42828 36.7217 9.39812 37.239 10.4329C37.7562 11.4027 38.2728 12.4366 38.7901 13.4052L38.9846 13.7938C43.8969 23.4248 48.6807 33.25 53.1408 42.8821V42.9461C53.6581 43.9806 54.1102 45.145 54.6275 46.1788C54.9509 46.9551 55.2739 47.6001 55.4675 48.2472C55.9847 49.9277 56.1786 51.5444 55.9203 53.2241H55.9201ZM30.1285 50.1857C26.6382 45.7907 24.3753 41.6533 23.5997 38.1637C23.277 36.6766 23.2116 35.3837 23.4061 34.2201C23.5351 33.1855 23.9234 32.2802 24.4397 31.5039C25.6681 29.7602 27.7365 28.6593 30.1285 28.6593C32.5203 28.6593 34.6533 29.6945 35.8168 31.5039C36.3336 32.2802 36.7217 33.1855 36.8508 34.2201C37.0447 35.3837 36.98 36.741 36.657 38.1637C35.8815 41.5893 33.6188 45.7262 30.1285 50.1857ZM59.2815 46.8248C58.9585 46.049 58.6351 45.209 58.3121 44.4979C57.7948 43.3349 57.2776 42.2352 56.825 41.2007L56.7603 41.1367C52.3006 31.4399 47.5168 21.6147 42.4747 11.92L42.2811 11.5309C41.7638 10.5613 41.2465 9.5268 40.73 8.49273C40.0831 7.32859 39.4365 6.10164 38.4026 4.93727C36.3333 2.35164 33.3605 0.929688 30.1927 0.929688C26.9607 0.929688 24.0521 2.35164 21.9186 4.80859C20.9494 5.9718 20.2383 7.19992 19.5919 8.3643C19.0747 9.39812 18.5574 10.4327 18.0404 11.4027L17.8465 11.7895C12.8696 21.4855 8.0213 31.3115 3.56091 41.0076L3.49646 41.1367C3.04365 42.1705 2.52638 43.2691 2.00912 44.4334C1.66331 45.1995 1.34012 45.9757 1.03998 46.7608C0.199274 49.1519 -0.0590073 51.4148 0.263961 53.7414C0.975524 58.5897 4.20755 62.6627 8.66771 64.472C10.3479 65.1836 12.0933 65.5066 13.9036 65.5066C14.4207 65.5066 15.0671 65.4419 15.5844 65.3767C17.7172 65.1177 19.9149 64.408 22.0477 63.1792C24.6985 61.6926 27.2197 59.5598 30.0636 56.4569C32.9075 59.5598 35.4933 61.6928 38.079 63.1792C40.2125 64.408 42.41 65.1177 44.543 65.3767C45.0603 65.4419 45.7067 65.5066 46.2237 65.5066C48.0338 65.5066 49.8434 65.1836 51.4597 64.472C55.9845 62.6627 59.1519 58.5252 59.8629 53.7414C60.3802 51.4785 60.1212 49.2173 59.2812 46.8245L59.2815 46.8248Z" fill="#E0565B"/>
</g>
<defs>
<clipPath id="clip0_62_2749">
<rect width="60" height="64.6875" fill="white" transform="translate(0.129517 0.929688)"/>
</clipPath>
</defs>
</svg>
