<svg width="61" height="71" viewBox="0 0 61 71" fill="none" xmlns="http://www.w3.org/2000/svg">
<g id="logos:android-icon" clip-path="url(#clip0_62_2739)">
<path id="Vector" d="M18.3893 0.201267C18.0458 0.203479 17.7083 0.291197 17.4072 0.456501C16.4186 1.00447 16.0561 2.27455 16.6038 3.26244L18.8358 7.29275C13.4583 10.6197 9.89505 16.3028 9.89505 22.7892V23.9943C8.86216 22.806 7.34411 22.0558 5.64794 22.0558C2.54013 22.0558 0.0168457 24.5791 0.0168457 27.6867V45.0325C0.0168457 48.1399 2.54036 50.6634 5.64794 50.6634C7.34411 50.6634 8.86216 49.9129 9.89481 48.7246V51.1544C9.89481 54.4303 12.5754 57.1106 15.8512 57.1106H17.3625V64.8269C17.3625 67.9347 19.886 70.458 22.9936 70.458C26.1011 70.458 28.6244 67.9345 28.6244 64.8269V57.1106H31.2391V64.8269C31.2391 67.9347 33.7626 70.458 36.8702 70.458C39.9778 70.458 42.5011 67.9345 42.5011 64.8269V57.1106H44.0125C47.2882 57.1106 49.9687 54.4303 49.9687 51.1544V48.7246C51.0014 49.9129 52.5197 50.6634 54.2158 50.6634C57.3234 50.6634 59.8467 48.1399 59.8467 45.0325V27.6867C59.8467 24.5791 57.3234 22.0558 54.2158 22.0558C52.5197 22.0558 51.0014 22.806 49.9687 23.9943V22.9931V22.9356C49.9692 22.8747 49.9687 22.826 49.9687 22.7892C49.9687 16.304 46.3973 10.6265 41.0217 7.29931L43.26 3.26244C43.8075 2.27455 43.4451 1.00447 42.4565 0.456501C42.1555 0.291197 41.818 0.203479 41.4745 0.201267C40.7444 0.194235 40.0279 0.579079 39.6506 1.25994L37.3101 5.48806C35.0217 4.64361 32.5317 4.18072 29.932 4.18072C27.3347 4.18072 24.84 4.63869 22.5534 5.4815L20.2132 1.25994C19.8356 0.579079 19.1193 0.194704 18.3893 0.201267Z" fill="white"/>
<path id="Vector_2" d="M5.64803 23.5225C3.32912 23.5225 1.48389 25.3677 1.48389 27.6866V45.0325C1.48389 47.3514 3.32912 49.1966 5.64803 49.1966C7.96693 49.1966 9.8124 47.3514 9.8124 45.0325V27.6866C9.8124 25.3677 7.96693 23.5225 5.64803 23.5225ZM54.2162 23.5225C51.897 23.5225 50.0518 25.3677 50.0518 27.6866V45.0325C50.0518 47.3514 51.897 49.1966 54.2162 49.1966C56.5351 49.1966 58.3803 47.3514 58.3803 45.0325V27.6866C58.3803 25.3677 56.5351 23.5225 54.2162 23.5225Z" fill="#A4C639"/>
<path id="Vector_3" d="M22.9938 43.3169C20.6749 43.3169 18.8295 45.1621 18.8295 47.4813V64.8269C18.8295 67.1458 20.6749 68.991 22.9938 68.991C25.3127 68.991 27.158 67.1458 27.158 64.8269V47.4813C27.158 45.1621 25.3127 43.3169 22.9938 43.3169ZM36.8705 43.3169C34.5513 43.3169 32.7061 45.1621 32.7061 47.4813V64.8269C32.7061 67.1458 34.5513 68.991 36.8705 68.991C39.1894 68.991 41.0346 67.1458 41.0346 64.8269V47.4813C41.0346 45.1621 39.1894 43.3169 36.8705 43.3169Z" fill="#A4C639"/>
<path id="Vector_4" d="M18.4019 1.66805C18.3034 1.66924 18.2068 1.69554 18.1213 1.74446C17.8244 1.90899 17.7269 2.25024 17.8916 2.54789L20.8253 7.84735C15.1815 10.7841 11.3692 16.3648 11.3617 22.7698H48.5019C48.4942 16.3648 44.6821 10.7838 39.0383 7.84735L41.9718 2.54813C42.1368 2.25047 42.039 1.90899 41.7421 1.74446C41.6566 1.69551 41.56 1.66921 41.4615 1.66805C41.2506 1.66571 41.0512 1.77118 40.9387 1.97414L37.9668 7.33078C35.5358 6.25266 32.8091 5.64727 29.9317 5.64727C27.0543 5.64727 24.3278 6.25243 21.8966 7.33078L18.9248 1.97414C18.8741 1.88012 18.7985 1.80183 18.7063 1.74785C18.6141 1.69386 18.5089 1.66626 18.4021 1.66805H18.4019ZM11.3617 24.2365V51.1544C11.3604 51.7444 11.4757 52.3287 11.7009 52.8739C11.926 53.4192 12.2567 53.9146 12.6738 54.3317C13.091 54.7488 13.5864 55.0794 14.1316 55.3046C14.6769 55.5297 15.2612 55.645 15.8512 55.6437H44.0125C44.6024 55.645 45.1868 55.5297 45.7321 55.3046C46.2773 55.0794 46.7728 54.7488 47.1899 54.3316C47.607 53.9145 47.9377 53.4191 48.1628 52.8738C48.388 52.3285 48.5032 51.7441 48.5019 51.1542V24.2367H11.3617V24.2365Z" fill="#A4C639"/>
<path id="Vector_5" d="M21.3608 12.8726C20.5131 12.8726 19.8112 13.5743 19.8112 14.422C19.8112 15.27 20.5131 15.9717 21.3608 15.9717C22.2088 15.9717 22.9105 15.27 22.9105 14.422C22.9105 13.5743 22.2088 12.8726 21.3608 12.8726ZM38.5026 12.8726C37.6546 12.8726 36.9529 13.5743 36.9529 14.422C36.9529 15.27 37.6546 15.9717 38.5026 15.9717C39.3503 15.9717 40.0522 15.27 40.0522 14.422C40.0522 13.5743 39.3503 12.8726 38.5026 12.8726Z" fill="white"/>
</g>
<defs>
<clipPath id="clip0_62_2739">
<rect width="60" height="70.5469" fill="white" transform="translate(0.0168457)"/>
</clipPath>
</defs>
</svg>
