<svg width="61" height="62" viewBox="0 0 61 62" fill="none" xmlns="http://www.w3.org/2000/svg">
<g id="logos:apiary" clip-path="url(#clip0_62_2729)">
<path id="Vector" opacity="0.5" d="M29.9448 9.56258V26.8079L44.909 18.1674V0.921875L29.9448 9.56258Z" fill="#13A049"/>
<path id="Vector_2" opacity="0.5" d="M29.9449 9.56258L14.981 0.921875V18.2033L29.9449 26.844V9.56258Z" fill="#A2CC39"/>
<path id="Vector_3" opacity="0.9" d="M44.909 0.921875L29.9449 9.56258L14.981 0.921875L0.0168457 9.56258L29.9449 26.844L59.8551 9.56258L44.909 0.921875Z" fill="url(#paint0_linear_62_2729)"/>
<path id="Vector_4" d="M29.9449 26.8439L0.0168457 9.5625V26.8439L14.981 35.4846V52.7482L29.9449 61.3889L44.909 52.7482V35.4846L59.8551 26.8439V9.5625L29.9449 26.8439Z" fill="url(#paint1_linear_62_2729)"/>
<path id="Vector_5" d="M29.9448 26.8439V61.3889L44.909 52.7482V35.4846L59.855 26.8439V9.5625L29.9448 26.8439Z" fill="url(#paint2_linear_62_2729)"/>
<path id="Vector_6" opacity="0.05" d="M29.9448 44.1074V61.3888L44.909 52.7481L29.9448 44.1074Z" fill="#231F20"/>
<path id="Vector_7" opacity="0.1" d="M29.9449 61.425V44.1436L14.981 52.7843L29.9449 61.425Z" fill="#231F20"/>
<path id="Vector_8" opacity="0.05" d="M14.981 18.2031L0.0168457 26.8438L14.981 35.4845L29.9449 26.8438L14.981 18.2031Z" fill="#231F20"/>
<path id="Vector_9" opacity="0.05" d="M44.909 18.2031L29.9448 26.8438L44.909 35.4845L59.855 26.8438L44.909 18.2031Z" fill="#231F20"/>
</g>
<defs>
<linearGradient id="paint0_linear_62_2729" x1="59.8623" y1="13.8806" x2="0.0168457" y2="13.8806" gradientUnits="userSpaceOnUse">
<stop stop-color="#37BDA6"/>
<stop offset="1" stop-color="#8AD3B8"/>
</linearGradient>
<linearGradient id="paint1_linear_62_2729" x1="59.8623" y1="35.4747" x2="0.0168457" y2="35.4747" gradientUnits="userSpaceOnUse">
<stop offset="0.5" stop-color="#4BB6AD"/>
<stop offset="1" stop-color="#78BBC1"/>
</linearGradient>
<linearGradient id="paint2_linear_62_2729" x1="29.9394" y1="35.4747" x2="59.8619" y2="35.4747" gradientUnits="userSpaceOnUse">
<stop stop-color="#4379A7"/>
<stop offset="1" stop-color="#7CC9B8"/>
</linearGradient>
<clipPath id="clip0_62_2729">
<rect width="60" height="60.7031" fill="white" transform="translate(0.0168457 0.921875)"/>
</clipPath>
</defs>
</svg>
