<svg width="61" height="61" viewBox="0 0 61 61" fill="none" xmlns="http://www.w3.org/2000/svg">
<g id="logos:apple-app-store" clip-path="url(#clip0_62_2726)">
<path id="Vector" d="M13.1568 0.273438H46.8768C54.134 0.273438 60.0168 6.15625 60.0168 13.4134V47.1334C60.0168 54.3906 54.134 60.2734 46.8768 60.2734H13.1568C5.89966 60.2734 0.0168457 54.3906 0.0168457 47.1334V13.4134C0.0168457 6.15625 5.89966 0.273438 13.1568 0.273438Z" fill="url(#paint0_linear_62_2726)"/>
<path id="Vector_2" d="M19.2455 43.8224L19.2511 43.8243L17.1996 47.3774C16.4508 48.6744 14.7923 49.1188 13.4953 48.37C12.1985 47.6212 11.7539 45.9627 12.5027 44.6657L14.014 42.0482L14.1591 41.7969C14.4181 41.4248 15.0572 40.7821 16.3357 40.903C16.3357 40.903 19.3444 41.2295 19.5621 42.7933C19.5621 42.7933 19.5916 43.3077 19.2455 43.8224ZM48.3415 34.7474H41.9445C41.5088 34.7181 41.3187 34.5625 41.2437 34.472L41.239 34.4638L34.3913 22.603L34.3824 22.6089L33.9717 22.0202C33.2986 20.9908 32.2299 23.6233 32.2299 23.6233C30.9537 26.5567 32.411 29.8916 32.9189 30.8997L42.4303 47.3739C43.1789 48.6707 44.8374 49.1153 46.1346 48.3662C47.4314 47.6174 47.876 45.959 47.127 44.6619L44.7488 40.5426C44.7026 40.4427 44.6224 40.1718 45.1102 40.1706H48.3415C49.8392 40.1706 51.0532 38.9566 51.0532 37.4589C51.0532 35.9612 49.8392 34.7472 48.3415 34.7472V34.7474ZM35.9163 38.4337C35.9163 38.4337 36.2578 40.1706 34.9367 40.1706H11.2884C9.79078 40.1706 8.57672 38.9566 8.57672 37.4589C8.57672 35.9612 9.79078 34.7472 11.2884 34.7472H17.3681C18.3497 34.6905 18.5822 34.1237 18.5822 34.1237L18.5878 34.1266L26.5238 20.3809L26.5214 20.3805C26.666 20.1149 26.5456 19.8639 26.5247 19.8243L23.9037 15.2847C23.1549 13.9879 23.5992 12.3292 24.8963 11.5806C26.1933 10.8318 27.8517 11.2759 28.6006 12.573L29.816 14.6784L31.0294 12.5767C31.7782 11.2799 33.4367 10.8353 34.7337 11.5844C36.0307 12.3332 36.4751 13.9914 35.7263 15.2884L24.683 34.4158C24.6347 34.5323 24.6199 34.7151 24.9792 34.7472H31.5802L31.5816 34.8116C31.5816 34.8116 35.3967 34.8709 35.9163 38.4337Z" fill="white"/>
</g>
<defs>
<linearGradient id="paint0_linear_62_2726" x1="30.0168" y1="0.273438" x2="30.0168" y2="60.2734" gradientUnits="userSpaceOnUse">
<stop stop-color="#17C9FB"/>
<stop offset="1" stop-color="#1A74E8"/>
</linearGradient>
<clipPath id="clip0_62_2726">
<rect width="60" height="60" fill="white" transform="translate(0.0168457 0.273438)"/>
</clipPath>
</defs>
</svg>
