<svg width="73" height="61" viewBox="0 0 73 61" fill="none" xmlns="http://www.w3.org/2000/svg">
<g id="logos:basecamp" clip-path="url(#clip0_62_2745)">
<path id="Vector" d="M36.1578 0.273438C16.8226 0.273438 1.67445 24.8734 0.241211 45.6509C6.30882 56.1813 20.9406 60.1396 36.1584 60.1396C51.375 60.1396 66.0077 56.1813 72.0722 45.6506C70.6387 24.8734 55.4925 0.273438 36.1581 0.273438" fill="#B6DEFF"/>
<path id="Vector_2" d="M67.0195 40.7017C67.0195 40.7017 62.7491 31.469 58.4085 26.0825C54.0649 20.6938 48.7604 14.8262 45.624 14.8262C42.4894 14.8262 33.7266 30.3411 29.7066 30.3411C25.6857 30.3411 23.5961 23.3079 18.6528 23.3079C13.7074 23.3079 5.85051 40.2681 5.85051 40.2681L5.31812 43.1434C5.31812 43.1434 8.04769 55.245 36.6037 55.245C65.1609 55.245 67.4432 43.3419 67.4432 43.3419L67.0198 40.7014" fill="#66CC66"/>
<path id="Vector_3" d="M30.1542 36.962C25.7192 36.962 23.4457 32.5863 22.2131 29.8851C21.1046 27.4519 20.9128 23.6102 17.7677 23.5026C18.0767 23.3801 18.3742 23.3077 18.6531 23.3077C23.5964 23.3077 25.686 30.3409 29.7069 30.3409C33.7269 30.3409 42.4897 14.8257 45.6243 14.8257C46.215 14.8257 46.8804 15.0341 47.6023 15.4048C47.0683 15.3344 46.3835 15.3834 45.8559 15.9127C44.8426 16.9262 35.6446 36.962 30.1542 36.962Z" fill="#17AD49"/>
</g>
<defs>
<clipPath id="clip0_62_2745">
<rect width="72.1127" height="60" fill="white" transform="translate(0.0168457 0.273438)"/>
</clipPath>
</defs>
</svg>
